<svg width="4004.25" height="940" version="1.1" baseProfile="full" xmlns="http://www.w3.org/2000/svg" xmlns:xlink="http://www.w3.org/1999/xlink" xmlns:ev="http://www.w3.org/2001/xml-events" style="font-weight:bold; font-size:12pt; font-family:'Calibri', Helvetica, sans-serif;;stroke-width:3;stroke-linejoin:round;stroke-linecap:round"><path d="M1740 389.5 L1740 409.5 L1740 429.5 L1740 429.5 " style="stroke:#33322E;fill:none;"></path>
<path d="M1734.7 416.2 L1740 422.8 L1745.3 416.2 L1740 429.5 Z" style="stroke:#33322E;fill:#33322E;"></path>
<path d="M958.5 318.5 L958.5 338.5 L1627.5 368.9 L1627.5 368.9 " style="stroke:#33322E;fill:none;"></path>
<path d="M963.8 331.8 L958.5 325.2 L953.2 331.8 L958.5 318.5 Z" style="stroke:#33322E;fill:#33322E;"></path>
<path d="M1854.8 318.5 L1854.8 338.5 L1790.1 358.5 L1790.1 358.5 " style="stroke:#33322E;fill:none;"></path>
<path d="M1860.1 331.8 L1854.8 325.2 L1849.4 331.8 L1854.8 318.5 Z" style="stroke:#33322E;fill:#33322E;"></path>
<path d="M360 247.5 L360 267.5 L858 297 L858 297 " style="stroke:#33322E;fill:none;"></path>
<path d="M365.3 260.8 L360 254.2 L354.7 260.8 L360 247.5 Z" style="stroke:#33322E;fill:#33322E;"></path>
<path d="M1005 247.5 L1005 267.5 L978.8 287.5 L978.8 287.5 " style="stroke:#33322E;fill:none;"></path>
<path d="M1010.3 260.8 L1005 254.2 L999.7 260.8 L1005 247.5 Z" style="stroke:#33322E;fill:#33322E;"></path>
<path d="M1675 446.7 L349.5 480.5 L349.5 500.5 L349.5 500.5 " style="stroke:#33322E;fill:none;"></path>
<path d="M344.2 487.2 L349.5 493.8 L354.8 487.2 L349.5 500.5 Z" style="stroke:#33322E;fill:#33322E;"></path>
<path d="M1718 460.5 L1689.5 480.5 L1689.5 500.5 L1689.5 500.5 " style="stroke:#33322E;fill:none;"></path>
<path d="M1684.2 487.2 L1689.5 493.8 L1694.8 487.2 L1689.5 500.5 Z" style="stroke:#33322E;fill:#33322E;"></path>
<path d="M1805 447.4 L2711.5 480.5 L2711.5 500.5 L2711.5 500.5 " style="stroke:#33322E;fill:none;"></path>
<path d="M2706.2 487.2 L2711.5 493.8 L2716.8 487.2 L2711.5 500.5 Z" style="stroke:#33322E;fill:#33322E;"></path>
<path d="M349.5 531.5 L349.5 551.5 L349.5 571.5 L349.5 571.5 " style="stroke:#33322E;fill:none;"></path>
<path d="M344.2 558.2 L349.5 564.8 L354.8 558.2 L349.5 571.5 Z" style="stroke:#33322E;fill:#33322E;"></path>
<path d="M443 520.9 L1028 551.5 L1028 579 L1028 579 " style="stroke:#33322E;fill:none;"></path>
<path d="M1022.7 565.7 L1028 572.3 L1033.3 565.7 L1028 579 Z" style="stroke:#33322E;fill:#33322E;"></path>
<path d="M349.5 663.5 L349.5 683.5 L349.5 726.5 L349.5 726.5 " style="stroke:#33322E;fill:none;"></path>
<path d="M344.2 713.2 L349.5 719.8 L354.8 713.2 L349.5 726.5 Z" style="stroke:#33322E;fill:#33322E;"></path>
<path d="M1028 656 L1028 683.5 L443 733.9 L443 733.9 " style="stroke:#33322E;fill:none;"></path>
<path d="M455.8 727.5 L449.6 733.4 L456.7 738.1 L443 733.9 Z" style="stroke:#33322E;fill:#33322E;"></path>
<path d="M308.1 757.5 L193.3 800.5 L193.3 828 L193.3 828 " style="stroke:#33322E;fill:none;"></path>
<path d="M187.9 814.7 L193.3 821.3 L198.6 814.7 L193.3 828 Z" style="stroke:#33322E;fill:#33322E;"></path>
<path d="M390.9 757.5 L505.8 800.5 L505.8 828 L505.8 828 " style="stroke:#33322E;fill:none;"></path>
<path d="M500.4 814.7 L505.8 821.3 L511.1 814.7 L505.8 828 Z" style="stroke:#33322E;fill:#33322E;"></path>
<path d="M443 753.7 L818.3 800.5 L818.3 820.5 L818.3 820.5 " style="stroke:#33322E;fill:none;"></path>
<path d="M812.9 807.2 L818.3 813.8 L823.6 807.2 L818.3 820.5 Z" style="stroke:#33322E;fill:#33322E;"></path>
<path d="M1354.5 247.5 L1354.5 267.5 L1765.8 296.7 L1765.8 296.7 " style="stroke:#33322E;fill:none;"></path>
<path d="M1359.8 260.8 L1354.5 254.2 L1349.2 260.8 L1354.5 247.5 Z" style="stroke:#33322E;fill:#33322E;"></path>
<path d="M1238.5 146 L1238.5 196.5 L1318 220.8 L1318 220.8 " style="stroke:#33322E;fill:none;"></path>
<path d="M1243.8 159.3 L1238.5 152.7 L1233.2 159.3 L1238.5 146 Z" style="stroke:#33322E;fill:#33322E;"></path>
<path d="M1113 44.5 L1113 64.5 L1209 115 L1209 115 " style="stroke:#33322E;fill:none;"></path>
<path d="M1118.3 57.8 L1113 51.2 L1107.7 57.8 L1113 44.5 Z" style="stroke:#33322E;fill:#33322E;"></path>
<path d="M1364 44.5 L1364 64.5 L1268 115 L1268 115 " style="stroke:#33322E;fill:none;"></path>
<path d="M1369.3 57.8 L1364 51.2 L1358.7 57.8 L1364 44.5 Z" style="stroke:#33322E;fill:#33322E;"></path>
<path d="M1587.8 146 L1587.8 196.5 L1391 226.4 L1391 226.4 " style="stroke:#33322E;fill:none;"></path>
<path d="M1593.1 159.3 L1587.8 152.7 L1582.4 159.3 L1587.8 146 Z" style="stroke:#33322E;fill:#33322E;"></path>
<path d="M497 247.5 L497 267.5 L1765.8 300.7 L1765.8 300.7 " style="stroke:#33322E;fill:none;"></path>
<path d="M502.3 260.8 L497 254.2 L491.7 260.8 L497 247.5 Z" style="stroke:#33322E;fill:#33322E;"></path>
<path d="M798 146 L798 196.5 L538.5 227.1 L538.5 227.1 " style="stroke:#33322E;fill:none;"></path>
<path d="M803.3 159.3 L798 152.7 L792.7 159.3 L798 146 Z" style="stroke:#33322E;fill:#33322E;"></path>
<path d="M497 146 L497 196.5 L497 216.5 L497 216.5 " style="stroke:#33322E;fill:none;"></path>
<path d="M502.3 159.3 L497 152.7 L491.7 159.3 L497 146 Z" style="stroke:#33322E;fill:#33322E;"></path>
<path d="M231.5 146 L231.5 196.5 L455.5 226.5 L455.5 226.5 " style="stroke:#33322E;fill:none;"></path>
<path d="M236.8 159.3 L231.5 152.7 L226.2 159.3 L231.5 146 Z" style="stroke:#33322E;fill:#33322E;"></path>
<path d="M231.5 44.5 L231.5 64.5 L231.5 115 L231.5 115 " style="stroke:#33322E;fill:none;"></path>
<path d="M236.8 57.8 L231.5 51.2 L226.2 57.8 L231.5 44.5 Z" style="stroke:#33322E;fill:#33322E;"></path>
<path d="M497 44.5 L497 64.5 L497 115 L497 115 " style="stroke:#33322E;fill:none;"></path>
<path d="M502.3 57.8 L497 51.2 L491.7 57.8 L497 44.5 Z" style="stroke:#33322E;fill:#33322E;"></path>
<path d="M798 44.5 L798 64.5 L798 115 L798 115 " style="stroke:#33322E;fill:none;"></path>
<path d="M803.3 57.8 L798 51.2 L792.7 57.8 L798 44.5 Z" style="stroke:#33322E;fill:#33322E;"></path>
<path d="M1587.8 44.5 L1587.8 64.5 L1587.8 115 L1587.8 115 " style="stroke:#33322E;fill:none;"></path>
<path d="M1593.1 57.8 L1587.8 51.2 L1582.4 57.8 L1587.8 44.5 Z" style="stroke:#33322E;fill:#33322E;"></path>
<path d="M1689.5 531.5 L1689.5 551.5 L1689.5 586.5 L1689.5 586.5 " style="stroke:#33322E;fill:none;"></path>
<path d="M1684.2 573.2 L1689.5 579.8 L1694.8 573.2 L1689.5 586.5 Z" style="stroke:#33322E;fill:#33322E;"></path>
<path d="M1740.5 518.9 L2308.5 551.5 L2308.5 586.5 L2308.5 586.5 " style="stroke:#33322E;fill:none;"></path>
<path d="M2303.2 573.2 L2308.5 579.8 L2313.8 573.2 L2308.5 586.5 Z" style="stroke:#33322E;fill:#33322E;"></path>
<path d="M2854.3 247.5 L2854.3 267.5 L1943.8 299.8 L1943.8 299.8 " style="stroke:#33322E;fill:none;"></path>
<path d="M2859.6 260.8 L2854.3 254.2 L2848.9 260.8 L2854.3 247.5 Z" style="stroke:#33322E;fill:#33322E;"></path>
<path d="M2711.5 531.5 L2711.5 551.5 L2711.5 602 L2711.5 602 " style="stroke:#33322E;fill:none;"></path>
<path d="M2706.2 588.7 L2711.5 595.3 L2716.8 588.7 L2711.5 602 Z" style="stroke:#33322E;fill:#33322E;"></path>
<path d="M2776.5 519.3 L3411.5 551.5 L3411.5 602 L3411.5 602 " style="stroke:#33322E;fill:none;"></path>
<path d="M3406.2 588.7 L3411.5 595.3 L3416.8 588.7 L3411.5 602 Z" style="stroke:#33322E;fill:#33322E;"></path>
<path d="M3385.9 633 L3302.5 683.5 L3302.5 711 L3302.5 711 " style="stroke:#33322E;fill:none;"></path>
<path d="M3297.2 697.7 L3302.5 704.3 L3307.8 697.7 L3302.5 711 Z" style="stroke:#33322E;fill:#33322E;"></path>
<path d="M3437.1 633 L3520.5 683.5 L3520.5 711 L3520.5 711 " style="stroke:#33322E;fill:none;"></path>
<path d="M3515.2 697.7 L3520.5 704.3 L3525.8 697.7 L3520.5 711 Z" style="stroke:#33322E;fill:#33322E;"></path>
<path d="M3487.1 633 L3733.5 683.5 L3733.5 711 L3733.5 711 " style="stroke:#33322E;fill:none;"></path>
<path d="M3728.2 697.7 L3733.5 704.3 L3738.8 697.7 L3733.5 711 Z" style="stroke:#33322E;fill:#33322E;"></path>
<path d="M2785.7 633 L3027.5 683.5 L3027.5 703.5 L3027.5 703.5 " style="stroke:#33322E;fill:none;"></path>
<path d="M3022.2 690.2 L3027.5 696.8 L3032.8 690.2 L3027.5 703.5 Z" style="stroke:#33322E;fill:#33322E;"></path>
<path d="M3027.5 780.5 L3027.5 800.5 L3027.5 820.5 L3027.5 820.5 " style="stroke:#33322E;fill:none;"></path>
<path d="M3022.2 807.2 L3027.5 813.8 L3032.8 807.2 L3027.5 820.5 Z" style="stroke:#33322E;fill:#33322E;"></path>
<path d="M2689.9 633 L2619.5 683.5 L2619.5 703.5 L2619.5 703.5 " style="stroke:#33322E;fill:none;"></path>
<path d="M2614.2 690.2 L2619.5 696.8 L2624.8 690.2 L2619.5 703.5 Z" style="stroke:#33322E;fill:#33322E;"></path>
<path d="M2114.3 169 L2114.3 196.5 L2770.3 228 L2770.3 228 " style="stroke:#33322E;fill:none;"></path>
<path d="M2854.3 169 L2854.3 196.5 L2854.3 216.5 L2854.3 216.5 " style="stroke:#33322E;fill:none;"></path>
<path d="M3622.8 176.5 L3622.8 196.5 L2938.3 228.1 L2938.3 228.1 " style="stroke:#33322E;fill:none;"></path>
<text x="2087.3" y="84" style="">of</text>
<path d="M2760.5 34.1 L2114.3 64.5 L2114.3 92 L2114.3 92 " style="stroke:#33322E;fill:none;"></path>
<path d="M2747.4 40 L2753.8 34.4 L2746.9 29.4 L2760.5 34.1 Z" style="stroke:#33322E;fill:#33322E;"></path>
<text x="2827.3" y="84" style="">of</text>
<path d="M2862.3 44.5 L2854.3 64.5 L2854.3 92 L2854.3 92 " style="stroke:#33322E;fill:none;"></path>
<path d="M2862.3 58.9 L2859.8 50.7 L2852.4 54.9 L2862.3 44.5 Z" style="stroke:#33322E;fill:#33322E;"></path>
<text x="3595.8" y="76.5" style="">of</text>
<path d="M2976.5 34.1 L3622.8 64.5 L3622.8 84.5 L3622.8 84.5 " style="stroke:#33322E;fill:none;"></path>
<path d="M2990.1 29.4 L2983.2 34.4 L2989.6 40 L2976.5 34.1 Z" style="stroke:#33322E;fill:#33322E;"></path>
<rect x="1627.5" y="358.5" height="31" width="225" style="stroke:#33322E;fill:#FF0;"></rect>
<text x="1635.5" y="380" style="">Development Operations</text>
<rect x="1675.5" y="429.5" height="31" width="130" style="stroke:#33322E;fill:#88F;"></rect>
<text x="1683.5" y="451" style="">Introduction</text>
<rect x="858.5" y="287.5" height="31" width="201" style="stroke:#33322E;fill:#F00;"></rect>
<text x="866.5" y="309" style="">Qualitative Methods</text>
<rect x="1765.5" y="287.5" height="31" width="178" style="stroke:#33322E;fill:#0F0;"></rect>
<text x="1773.5" y="309" style="">Literature Review</text>
<rect x="304.5" y="216.5" height="31" width="111" style="stroke:#33322E;fill:#F44;"></rect>
<text x="312.5" y="238" style="">Interviews</text>
<rect x="940.5" y="216.5" height="31" width="130" style="stroke:#33322E;fill:#F44;"></rect>
<text x="948.5" y="238" style="">Case Studies</text>
<rect x="256.5" y="500.5" height="31" width="187" style="stroke:#33322E;fill:#AAF;"></rect>
<text x="264.5" y="522" style="">Problem Statements</text>
<rect x="1638.5" y="500.5" height="31" width="102" style="stroke:#33322E;fill:#AAF;"></rect>
<text x="1646.5" y="522" style="">Objective</text>
<rect x="2646.5" y="500.5" height="31" width="130" style="stroke:#33322E;fill:#AAF;"></rect>
<text x="2654.5" y="522" style="">Significance</text>
<rect x="13.5" y="571.5" height="92" width="672" style="stroke:#33322E;fill:#CCF;"></rect>
<text x="21.5" y="593" style="">PS1</text>
<path d="M13.5 602.5 L685.5 602.5" style="stroke:#33322E;fill:none;"></path>
<text x="21.5" y="624" style="">With limited staff Startup Companies have in hand to begin with</text>
<text x="21.5" y="639" style="">the complex nature of software stacks require great deal of resources</text>
<text x="21.5" y="654" style="">and infrastructure for them to bring their product to the market.</text>
<rect x="725.5" y="579.5" height="77" width="605" style="stroke:#33322E;fill:#CCF;"></rect>
<text x="733.5" y="601" style="">PS2</text>
<path d="M725.5 610.5 L1330.5 610.5" style="stroke:#33322E;fill:none;"></path>
<text x="733.5" y="632" style="">Startups gets pressure to deliver quick, which relatively</text>
<text x="733.5" y="647" style="">translated to their whole business gets to fail it or nail it.</text>
<rect x="256.5" y="726.5" height="31" width="187" style="stroke:#33322E;fill:#AAF;"></rect>
<text x="264.5" y="748" style="">Research Questions</text>
<rect x="42.5" y="828.5" height="92" width="301" style="stroke:#33322E;fill:#CCF;"></rect>
<text x="50.5" y="850" style="">Team Size</text>
<path d="M42.5 859.5 L343.5 859.5" style="stroke:#33322E;fill:none;"></path>
<text x="50.5" y="881" style="">How DevOps can help</text>
<text x="50.5" y="896" style="">in reducing human intervention</text>
<text x="50.5" y="911" style="">in software delivery?</text>
<rect x="383.5" y="828.5" height="92" width="244" style="stroke:#33322E;fill:#CCF;"></rect>
<text x="391.5" y="850" style="">Cost</text>
<path d="M383.5 859.5 L627.5 859.5" style="stroke:#33322E;fill:none;"></path>
<text x="391.5" y="881" style="">What is the cost</text>
<text x="391.5" y="896" style="">of implementing DevOps</text>
<text x="391.5" y="911" style="">in software development?</text>
<rect x="667.5" y="820.5" height="107" width="301" style="stroke:#33322E;fill:#CCF;"></rect>
<text x="675.5" y="842" style="">Business Sustainability</text>
<path d="M667.5 851.5 L968.5 851.5" style="stroke:#33322E;fill:none;"></path>
<text x="675.5" y="873" style="">How does DevOps implementation</text>
<text x="675.5" y="888" style="">play a significant role</text>
<text x="675.5" y="903" style="">in determining success</text>
<text x="675.5" y="918" style="">in software development?</text>
<rect x="1318.5" y="216.5" height="31" width="73" style="stroke:#33322E;fill:#4F4;"></rect>
<text x="1326.5" y="238" style="">Impact</text>
<rect x="1192.5" y="115.5" height="31" width="92" style="stroke:#33322E;fill:#8F8;"></rect>
<text x="1200.5" y="137" style="">Adoption</text>
<rect x="1000.5" y="13.5" height="31" width="225" style="stroke:#33322E;fill:#AFA;"></rect>
<text x="1008.5" y="35" style="">Continuous Integration</text>
<rect x="1265.5" y="13.5" height="31" width="197" style="stroke:#33322E;fill:#AFA;"></rect>
<text x="1273.5" y="35" style="">Continuous Delivery</text>
<rect x="1441.5" y="115.5" height="31" width="292" style="stroke:#33322E;fill:#8F8;"></rect>
<text x="1449.5" y="137" style="">Business Sustainability study</text>
<rect x="455.5" y="216.5" height="31" width="83" style="stroke:#33322E;fill:#4F4;"></rect>
<text x="463.5" y="238" style="">Process</text>
<rect x="709.5" y="115.5" height="31" width="178" style="stroke:#33322E;fill:#8F8;"></rect>
<text x="717.5" y="137" style="">Build Engineering</text>
<rect x="330.5" y="115.5" height="31" width="334" style="stroke:#33322E;fill:#8F8;"></rect>
<text x="338.5" y="137" style="">Software Configuration Management</text>
<rect x="176.5" y="115.5" height="31" width="111" style="stroke:#33322E;fill:#8F8;"></rect>
<text x="184.5" y="137" style="">Compliancy</text>
<rect x="104.5" y="13.5" height="31" width="254" style="stroke:#33322E;fill:#AFA;"></rect>
<text x="112.5" y="35" style="">Industrial Revolution 5.0</text>
<rect x="398.5" y="13.5" height="31" width="197" style="stroke:#33322E;fill:#AFA;"></rect>
<text x="406.5" y="35" style="">Software Automation</text>
<rect x="635.5" y="13.5" height="31" width="325" style="stroke:#33322E;fill:#AFA;"></rect>
<text x="643.5" y="35" style="">Application Lifecycle Management</text>
<rect x="1510.5" y="13.5" height="31" width="154" style="stroke:#33322E;fill:#AFA;"></rect>
<text x="1518.5" y="35" style="">Time to Market</text>
<rect x="1370.5" y="586.5" height="62" width="638" style="stroke:#33322E;fill:#CCF;"></rect>
<text x="1378.5" y="608" style="">Investigate</text>
<path d="M1370.5 617.5 L2008.5 617.5" style="stroke:#33322E;fill:none;"></path>
<text x="1378.5" y="639" style="">Investigate implementation of DevOps in Malaysian Startup Company</text>
<rect x="2048.5" y="586.5" height="62" width="520" style="stroke:#33322E;fill:#CCF;"></rect>
<text x="2056.5" y="608" style="">Roadmap</text>
<path d="M2048.5 617.5 L2568.5 617.5" style="stroke:#33322E;fill:none;"></path>
<text x="2056.5" y="639" style="">Produce new guideline on how DevOps to be implemented</text>
<rect x="2770.5" y="216.5" height="31" width="168" style="stroke:#33322E;fill:#4F4;"></rect>
<text x="2778.5" y="238" style="">Previous studies</text>
<rect x="2608.5" y="602.5" height="31" width="206" style="stroke:#33322E;fill:#CCF;"></rect>
<text x="2616.5" y="624" style="">body governing study</text>
<rect x="3289.5" y="602.5" height="31" width="244" style="stroke:#33322E;fill:#CCF;"></rect>
<text x="3297.5" y="624" style="">involvement in the field</text>
<rect x="3213.5" y="711.5" height="62" width="178" style="stroke:#33322E;fill:#EEF;"></rect>
<text x="3221.5" y="733" style="">SCM role</text>
<path d="M3213.5 742.5 L3391.5 742.5" style="stroke:#33322E;fill:none;"></path>
<text x="3221.5" y="764" style="">- 2008 until 2013</text>
<rect x="3431.5" y="711.5" height="62" width="178" style="stroke:#33322E;fill:#EEF;"></rect>
<text x="3439.5" y="733" style="">BE role</text>
<path d="M3431.5 742.5 L3609.5 742.5" style="stroke:#33322E;fill:none;"></path>
<text x="3439.5" y="764" style="">- 2013 until 2017</text>
<rect x="3649.5" y="711.5" height="62" width="168" style="stroke:#33322E;fill:#EEF;"></rect>
<text x="3657.5" y="733" style="">DevOps role</text>
<path d="M3649.5 742.5 L3817.5 742.5" style="stroke:#33322E;fill:none;"></path>
<text x="3657.5" y="764" style="">- 2017 until now</text>
<rect x="2881.5" y="703.5" height="77" width="292" style="stroke:#33322E;fill:#EEF;"></rect>
<text x="2889.5" y="725" style="">NEF</text>
<path d="M2881.5 734.5 L3173.5 734.5" style="stroke:#33322E;fill:none;"></path>
<text x="2889.5" y="756" style="">- NGO</text>
<text x="2889.5" y="771" style="">- National Enterpreneurs Fund</text>
<rect x="2397.5" y="703.5" height="77" width="444" style="stroke:#33322E;fill:#EEF;"></rect>
<text x="2405.5" y="725" style="">MaGIC</text>
<path d="M2397.5 734.5 L2841.5 734.5" style="stroke:#33322E;fill:none;"></path>
<text x="2405.5" y="756" style="">- Subdivision under MDEC</text>
<text x="2405.5" y="771" style="">- support local startup in term of incubation</text>
<rect x="2813.5" y="820.5" height="107" width="429" style="stroke:#33322E;fill:#EEF;"></rect>
<text x="2821.5" y="842" style="">JOMWeb</text>
<path d="M2813.5 851.5 L3242.5 851.5" style="stroke:#33322E;fill:none;"></path>
<text x="2821.5" y="873" style="">- NGO</text>
<text x="2821.5" y="888" style="">- consists of startups</text>
<text x="2821.5" y="903" style="">- independent startups</text>
<text x="2821.5" y="918" style="">- host JOM Launch, Tech Crunch alike event.</text>
<rect x="1773.5" y="92.5" height="77" width="681" style="stroke:#33322E;fill:#8F8;"></rect>
<text x="1781.5" y="114" style="">Huge impact on the process</text>
<path d="M1773.5 123.5 L2454.5 123.5" style="stroke:#33322E;fill:none;"></path>
<text x="1781.5" y="145" style="">- DevOps enables both continuous integration and continuous deployment</text>
<text x="1781.5" y="160" style="">- make huge impact on software engineering process.</text>
<rect x="2494.5" y="92.5" height="77" width="719" style="stroke:#33322E;fill:#8F8;"></rect>
<text x="2502.5" y="114" style="">Bridges shortcoming</text>
<path d="M2494.5 123.5 L3213.5 123.5" style="stroke:#33322E;fill:none;"></path>
<text x="2502.5" y="145" style="">- DevOps bridges the shortcoming of previous software development methods.</text>
<text x="2502.5" y="160" style="">- facilitate communication between the whole team</text>
<rect x="3253.5" y="84.5" height="92" width="738" style="stroke:#33322E;fill:#8F8;"></rect>
<text x="3261.5" y="106" style="">DevOps principle</text>
<path d="M3253.5 115.5 L3991.5 115.5" style="stroke:#33322E;fill:none;"></path>
<text x="3261.5" y="137" style="">- Just like agile principle in software development</text>
<text x="3261.5" y="152" style="">- DevOps are also principles that these papers discussed</text>
<text x="3261.5" y="167" style="">- there is no certain software or is written in stone on how to practise it.</text>
<rect x="2760.5" y="13.5" height="31" width="216" style="stroke:#33322E;fill:#AFA;"></rect>
<text x="2768.5" y="35" style="">Established companies</text></svg>